<svg xmlns="http://www.w3.org/2000/svg" xmlns:xlink="http://www.w3.org/1999/xlink" width="300" zoomAndPan="magnify" viewBox="0 0 224.87999 74.999997" height="100" preserveAspectRatio="xMidYMid meet" version="1.0"><defs><g/><clipPath id="a90659aa27"><path d="M 66 9.851562 L 223.917969 9.851562 L 223.917969 57.976562 L 66 57.976562 Z M 66 9.851562 " clip-rule="nonzero"/></clipPath><clipPath id="e6799b3965"><path d="M 96 9.851562 L 222.265625 9.851562 C 222.800781 9.851562 223.296875 10.140625 223.5625 10.605469 C 223.824219 11.070312 223.820312 11.640625 223.546875 12.101562 L 197.714844 55.726562 C 196.890625 57.121094 195.390625 57.976562 193.769531 57.976562 L 67.503906 57.976562 C 66.96875 57.976562 66.476562 57.6875 66.210938 57.222656 C 65.945312 56.757812 65.949219 56.1875 66.222656 55.726562 L 92.054688 12.101562 C 92.882812 10.707031 94.378906 9.851562 96 9.851562 Z M 96 9.851562 " clip-rule="nonzero"/></clipPath></defs><g clip-path="url(#a90659aa27)"><g clip-path="url(#e6799b3965)"><path fill="#545454" d="M 64.890625 9.851562 L 224.855469 9.851562 L 224.855469 57.976562 L 64.890625 57.976562 Z M 64.890625 9.851562 " fill-opacity="1" fill-rule="nonzero"/></g></g><g fill="#1c2120" fill-opacity="1"><g transform="translate(0.000000000000031957, 56.35395)"><g><path d="M 40.953125 0 L 33.296875 0 L 33.234375 -22.203125 L 25.046875 -3.421875 L 19.375 -3.421875 L 11.171875 -22.203125 L 11.171875 0 L 3.421875 0 L 3.421875 -34.21875 L 12.9375 -34.21875 L 22.203125 -13.859375 L 31.484375 -34.21875 L 40.953125 -34.21875 Z M 40.953125 0 "/></g></g></g><g fill="#1c2120" fill-opacity="1"><g transform="translate(41.620823, 56.35395)"><g><path d="M 21.03125 -11.03125 L 21.03125 0 L 12.390625 0 L 12.390625 -10.78125 L -0.25 -34.171875 L 8.4375 -34.171875 L 16.6875 -19.28125 L 24.75 -34.171875 L 33.4375 -34.171875 Z M 21.03125 -11.03125 "/></g></g></g><g fill="#ffffff" fill-opacity="1"><g transform="translate(76.280227, 49.875581)"><g><path d="M 13.734375 -28.703125 C 17.984375 -28.703125 21.710938 -27.644531 24.921875 -25.53125 L 22.21875 -19.90625 C 20.726562 -20.769531 19.128906 -21.476562 17.421875 -22.03125 C 15.722656 -22.582031 14.289062 -22.859375 13.125 -22.859375 C 11.050781 -22.859375 10.015625 -22.171875 10.015625 -20.796875 C 10.015625 -19.898438 10.523438 -19.179688 11.546875 -18.640625 C 12.578125 -18.097656 13.828125 -17.628906 15.296875 -17.234375 C 16.773438 -16.847656 18.25 -16.378906 19.71875 -15.828125 C 21.1875 -15.273438 22.429688 -14.375 23.453125 -13.125 C 24.484375 -11.882812 25 -10.320312 25 -8.4375 C 25 -5.707031 23.929688 -3.578125 21.796875 -2.046875 C 19.671875 -0.515625 16.957031 0.25 13.65625 0.25 C 11.300781 0.25 8.976562 -0.15625 6.6875 -0.96875 C 4.394531 -1.78125 2.394531 -2.890625 0.6875 -4.296875 L 3.484375 -9.84375 C 4.921875 -8.601562 6.609375 -7.582031 8.546875 -6.78125 C 10.492188 -5.988281 12.222656 -5.59375 13.734375 -5.59375 C 14.898438 -5.59375 15.804688 -5.800781 16.453125 -6.21875 C 17.097656 -6.632812 17.421875 -7.25 17.421875 -8.0625 C 17.421875 -8.84375 17.050781 -9.5 16.3125 -10.03125 C 15.570312 -10.5625 14.644531 -10.953125 13.53125 -11.203125 C 12.425781 -11.460938 11.222656 -11.804688 9.921875 -12.234375 C 8.628906 -12.671875 7.425781 -13.144531 6.3125 -13.65625 C 5.207031 -14.164062 4.285156 -14.984375 3.546875 -16.109375 C 2.804688 -17.234375 2.4375 -18.578125 2.4375 -20.140625 C 2.4375 -22.734375 3.46875 -24.804688 5.53125 -26.359375 C 7.601562 -27.921875 10.335938 -28.703125 13.734375 -28.703125 Z M 13.734375 -28.703125 "/></g></g></g><g fill="#ffffff" fill-opacity="1"><g transform="translate(100.06807, 49.875581)"><g><path d="M 15.515625 -6.046875 L 16.90625 -1.171875 C 15.195312 -0.171875 13.25 0.328125 11.0625 0.328125 C 8.90625 0.328125 7.15625 -0.269531 5.8125 -1.46875 C 4.476562 -2.675781 3.8125 -4.390625 3.8125 -6.609375 L 3.8125 -16.25 L 0.765625 -16.25 L 0.765625 -20.828125 L 3.8125 -20.828125 L 3.8125 -26.90625 L 10.78125 -26.90625 L 10.78125 -20.875 L 16.5 -20.875 L 16.5 -16.25 L 10.78125 -16.25 L 10.78125 -7.703125 C 10.78125 -6.859375 10.945312 -6.238281 11.28125 -5.84375 C 11.625 -5.457031 12.132812 -5.28125 12.8125 -5.3125 C 13.457031 -5.3125 14.359375 -5.554688 15.515625 -6.046875 Z M 15.515625 -6.046875 "/></g></g></g><g fill="#ffffff" fill-opacity="1"><g transform="translate(115.386219, 49.875581)"><g><path d="M 24.078125 -21.84375 L 24.078125 0 L 17.0625 0 L 17.0625 -3.609375 C 15.570312 -1.015625 13.207031 0.28125 9.96875 0.28125 C 7.59375 0.28125 5.691406 -0.472656 4.265625 -1.984375 C 2.847656 -3.492188 2.140625 -5.519531 2.140625 -8.0625 L 2.140625 -21.84375 L 9.15625 -21.84375 L 9.15625 -10.046875 C 9.15625 -8.753906 9.484375 -7.734375 10.140625 -6.984375 C 10.804688 -6.242188 11.695312 -5.875 12.8125 -5.875 C 14.132812 -5.90625 15.171875 -6.398438 15.921875 -7.359375 C 16.679688 -8.316406 17.0625 -9.550781 17.0625 -11.0625 L 17.0625 -21.84375 Z M 24.078125 -21.84375 "/></g></g></g><g fill="#ffffff" fill-opacity="1"><g transform="translate(139.944032, 49.875581)"><g><path d="M 24.8125 -30.078125 L 24.8125 0 L 17.796875 0 L 17.796875 -2.875 C 16.203125 -0.769531 14.015625 0.28125 11.234375 0.28125 C 8.148438 0.28125 5.675781 -0.753906 3.8125 -2.828125 C 1.945312 -4.910156 1.015625 -7.644531 1.015625 -11.03125 C 1.015625 -14.375 1.929688 -17.054688 3.765625 -19.078125 C 5.609375 -21.109375 8.039062 -22.125 11.0625 -22.125 C 13.957031 -22.125 16.203125 -21.070312 17.796875 -18.96875 L 17.796875 -30.078125 Z M 9.390625 -6.71875 C 10.285156 -5.664062 11.460938 -5.140625 12.921875 -5.140625 C 14.390625 -5.140625 15.566406 -5.664062 16.453125 -6.71875 C 17.347656 -7.78125 17.796875 -9.160156 17.796875 -10.859375 C 17.796875 -12.535156 17.347656 -13.898438 16.453125 -14.953125 C 15.566406 -16.003906 14.390625 -16.53125 12.921875 -16.53125 C 11.460938 -16.53125 10.285156 -16.007812 9.390625 -14.96875 C 8.503906 -13.9375 8.050781 -12.566406 8.03125 -10.859375 C 8.050781 -9.160156 8.503906 -7.78125 9.390625 -6.71875 Z M 9.390625 -6.71875 "/></g></g></g><g fill="#ffffff" fill-opacity="1"><g transform="translate(165.43392, 49.875581)"><g><path d="M 3.671875 -30.78125 C 4.359375 -31.46875 5.238281 -31.8125 6.3125 -31.8125 C 7.394531 -31.8125 8.28125 -31.46875 8.96875 -30.78125 C 9.664062 -30.09375 10.015625 -29.207031 10.015625 -28.125 C 10.015625 -27.039062 9.664062 -26.148438 8.96875 -25.453125 C 8.28125 -24.753906 7.394531 -24.40625 6.3125 -24.40625 C 5.238281 -24.40625 4.359375 -24.753906 3.671875 -25.453125 C 2.984375 -26.148438 2.640625 -27.039062 2.640625 -28.125 C 2.640625 -29.207031 2.984375 -30.09375 3.671875 -30.78125 Z M 9.765625 0 L 2.796875 0 L 2.796875 -21.84375 L 9.765625 -21.84375 Z M 9.765625 0 "/></g></g></g><g fill="#ffffff" fill-opacity="1"><g transform="translate(175.727001, 49.875581)"><g><path d="M 12.921875 -22.09375 C 16.492188 -22.09375 19.375 -21.070312 21.5625 -19.03125 C 23.75 -16.988281 24.84375 -14.289062 24.84375 -10.9375 C 24.84375 -7.59375 23.75 -4.890625 21.5625 -2.828125 C 19.375 -0.773438 16.492188 0.25 12.921875 0.25 C 9.328125 0.25 6.4375 -0.773438 4.25 -2.828125 C 2.0625 -4.890625 0.96875 -7.59375 0.96875 -10.9375 C 0.96875 -14.289062 2.0625 -16.988281 4.25 -19.03125 C 6.4375 -21.070312 9.328125 -22.09375 12.921875 -22.09375 Z M 12.921875 -16.53125 C 11.460938 -16.53125 10.28125 -16.003906 9.375 -14.953125 C 8.476562 -13.898438 8.03125 -12.535156 8.03125 -10.859375 C 8.03125 -9.160156 8.476562 -7.789062 9.375 -6.75 C 10.28125 -5.707031 11.460938 -5.1875 12.921875 -5.1875 C 14.359375 -5.1875 15.53125 -5.707031 16.4375 -6.75 C 17.34375 -7.789062 17.796875 -9.160156 17.796875 -10.859375 C 17.796875 -12.535156 17.34375 -13.898438 16.4375 -14.953125 C 15.53125 -16.003906 14.359375 -16.53125 12.921875 -16.53125 Z M 12.921875 -16.53125 "/></g></g></g></svg>