<svg xmlns="http://www.w3.org/2000/svg" xmlns:xlink="http://www.w3.org/1999/xlink" width="500" zoomAndPan="magnify" viewBox="0 0 375 374.999991" height="500" preserveAspectRatio="xMidYMid meet" version="1.0"><defs><g/><clipPath id="c02366461d"><path d="M 281.464844 74.5 L 341.464844 74.5 L 341.464844 138.25 L 281.464844 138.25 Z M 281.464844 74.5 " clip-rule="nonzero"/></clipPath></defs><g clip-path="url(#c02366461d)"><path fill="#000000" d="M 311.445312 85.382812 C 306.0625 85.445312 301.011719 87.574219 297.222656 91.378906 C 293.429688 95.1875 291.339844 100.234375 291.339844 105.589844 C 291.339844 111.648438 294.046875 117.335938 298.761719 121.191406 C 300.25 122.410156 301.105469 124.214844 301.105469 126.144531 L 301.105469 131.191406 C 301.105469 135.0625 304.277344 138.214844 308.175781 138.214844 L 315.210938 138.214844 C 319.113281 138.214844 322.285156 135.0625 322.285156 131.191406 L 322.285156 126.144531 C 322.285156 124.21875 323.152344 122.40625 324.660156 121.167969 C 329.445312 117.234375 332.140625 111.441406 332.046875 105.273438 C 331.875 94.171875 322.636719 85.246094 311.445312 85.382812 Z M 315.210938 135.425781 L 308.175781 135.425781 C 306.054688 135.425781 304.289062 133.878906 303.964844 131.859375 L 319.425781 131.859375 C 319.101562 133.878906 317.335938 135.425781 315.210938 135.425781 Z M 319.480469 129.070312 L 303.910156 129.070312 L 303.910156 127.539062 L 319.480469 127.539062 Z M 322.871094 119.015625 C 321.082031 120.484375 319.929688 122.523438 319.585938 124.75 L 303.804688 124.75 C 303.464844 122.519531 302.320312 120.492188 300.546875 119.039062 C 296.480469 115.714844 294.148438 110.8125 294.148438 105.585938 C 294.148438 96.09375 301.925781 88.28125 311.480469 88.167969 C 311.554688 88.164062 311.625 88.164062 311.695312 88.164062 C 321.242188 88.164062 329.09375 95.816406 329.242188 105.316406 C 329.320312 110.632812 327 115.628906 322.871094 119.015625 Z M 310.292969 81.128906 L 310.292969 75.929688 C 310.292969 75.160156 310.917969 74.535156 311.695312 74.535156 C 312.46875 74.535156 313.097656 75.160156 313.097656 75.929688 L 313.097656 81.128906 C 313.097656 81.898438 312.46875 82.523438 311.695312 82.523438 C 310.917969 82.523438 310.292969 81.898438 310.292969 81.128906 Z M 322.125 83.652344 L 324.746094 79.152344 C 325.132812 78.484375 325.992188 78.257812 326.664062 78.640625 C 327.335938 79.027344 327.5625 79.878906 327.175781 80.542969 L 324.558594 85.046875 C 324.296875 85.496094 323.828125 85.746094 323.339844 85.746094 C 323.101562 85.746094 322.863281 85.683594 322.640625 85.558594 C 321.96875 85.171875 321.738281 84.320312 322.125 83.652344 Z M 337.042969 91.53125 L 332.511719 94.132812 C 332.289062 94.257812 332.046875 94.320312 331.808594 94.320312 C 331.324219 94.320312 330.851562 94.070312 330.59375 93.621094 C 330.203125 92.957031 330.433594 92.101562 331.105469 91.71875 L 335.640625 89.117188 C 336.3125 88.730469 337.171875 88.960938 337.558594 89.628906 C 337.945312 90.292969 337.714844 91.144531 337.042969 91.53125 Z M 341.460938 104.550781 C 341.460938 105.320312 340.835938 105.945312 340.058594 105.945312 L 334.820312 105.945312 C 334.046875 105.945312 333.417969 105.320312 333.417969 104.550781 C 333.417969 103.78125 334.046875 103.15625 334.820312 103.15625 L 340.058594 103.15625 C 340.832031 103.15625 341.460938 103.78125 341.460938 104.550781 Z M 296.152344 80.3125 C 295.761719 79.648438 295.996094 78.796875 296.664062 78.410156 C 297.335938 78.023438 298.195312 78.253906 298.582031 78.921875 L 301.203125 83.421875 C 301.589844 84.089844 301.359375 84.941406 300.6875 85.328125 C 300.46875 85.453125 300.226562 85.515625 299.988281 85.515625 C 299.503906 85.515625 299.03125 85.265625 298.769531 84.820312 Z M 291.351562 93.917969 C 291.113281 93.917969 290.871094 93.859375 290.648438 93.730469 L 286.113281 91.132812 C 285.445312 90.746094 285.214844 89.894531 285.601562 89.226562 C 285.988281 88.5625 286.847656 88.332031 287.519531 88.71875 L 292.054688 91.316406 C 292.726562 91.703125 292.953125 92.554688 292.566406 93.222656 C 292.308594 93.667969 291.835938 93.917969 291.351562 93.917969 Z M 289.511719 104.089844 C 289.511719 104.859375 288.882812 105.484375 288.105469 105.484375 L 282.871094 105.484375 C 282.09375 105.484375 281.464844 104.859375 281.464844 104.089844 C 281.464844 103.320312 282.09375 102.695312 282.871094 102.695312 L 288.105469 102.695312 C 288.882812 102.695312 289.511719 103.320312 289.511719 104.089844 Z M 289.511719 104.089844 " fill-opacity="1" fill-rule="nonzero"/></g><g fill="#545454" fill-opacity="1"><g transform="translate(95.609065, 143.72619)"><g><path d="M 6.078125 0 L 6.078125 -137.5 L 48.015625 -137.5 L 59.546875 -53.625 L 71.078125 -137.5 L 113.328125 -137.5 L 113.328125 0 L 88.203125 0 L 88.203125 -99.09375 L 72.359375 0 L 47.703125 0 L 30.890625 -99.09375 L 30.890625 0 Z M 6.078125 0 "/></g></g></g><g fill="#545454" fill-opacity="1"><g transform="translate(208.624373, 143.72619)"><g><path d="M 22.734375 0 L 22.734375 -45.296875 L 0.796875 -137.5 L 28.015625 -137.5 L 35.703125 -90.921875 L 43.375 -137.5 L 70.59375 -137.5 L 48.65625 -45.296875 L 48.65625 0 Z M 22.734375 0 "/></g></g></g><g fill="#545454" fill-opacity="1"><g transform="translate(0.755979, 367.749688)"><g><path d="M 38.734375 1.28125 C 26.253906 1.28125 17.238281 -1.8125 11.6875 -8 C 6.132812 -14.1875 3.359375 -24.164062 3.359375 -37.9375 L 3.359375 -51.390625 L 30.421875 -51.390625 L 30.421875 -34.25 C 30.421875 -27.425781 32.609375 -24.015625 36.984375 -24.015625 C 39.429688 -24.015625 41.132812 -24.734375 42.09375 -26.171875 C 43.0625 -27.609375 43.546875 -30.035156 43.546875 -33.453125 C 43.546875 -37.929688 43.007812 -41.640625 41.9375 -44.578125 C 40.875 -47.515625 39.515625 -49.96875 37.859375 -51.9375 C 36.203125 -53.914062 33.238281 -56.988281 28.96875 -61.15625 L 17.125 -73 C 7.945312 -81.957031 3.359375 -91.878906 3.359375 -102.765625 C 3.359375 -114.503906 6.050781 -123.441406 11.4375 -129.578125 C 16.832031 -135.710938 24.707031 -138.78125 35.0625 -138.78125 C 47.4375 -138.78125 56.34375 -135.5 61.78125 -128.9375 C 67.226562 -122.375 69.953125 -112.101562 69.953125 -98.125 L 41.9375 -98.125 L 41.78125 -107.578125 C 41.78125 -109.390625 41.269531 -110.828125 40.25 -111.890625 C 39.238281 -112.960938 37.828125 -113.5 36.015625 -113.5 C 33.878906 -113.5 32.273438 -112.910156 31.203125 -111.734375 C 30.140625 -110.554688 29.609375 -108.957031 29.609375 -106.9375 C 29.609375 -102.445312 32.171875 -97.800781 37.296875 -93 L 53.3125 -77.640625 C 57.039062 -74.003906 60.128906 -70.5625 62.578125 -67.3125 C 65.035156 -64.0625 67.007812 -60.21875 68.5 -55.78125 C 70 -51.351562 70.75 -46.097656 70.75 -40.015625 C 70.75 -26.460938 68.269531 -16.191406 63.3125 -9.203125 C 58.351562 -2.210938 50.160156 1.28125 38.734375 1.28125 Z M 38.734375 1.28125 "/></g></g></g><g fill="#545454" fill-opacity="1"><g transform="translate(68.148838, 367.749688)"><g><path d="M 17.921875 0 L 17.921875 -111.09375 L 1.59375 -111.09375 L 1.59375 -137.5 L 61.796875 -137.5 L 61.796875 -111.09375 L 45.46875 -111.09375 L 45.46875 0 Z M 17.921875 0 "/></g></g></g><g fill="#545454" fill-opacity="1"><g transform="translate(125.136576, 367.749688)"><g><path d="M 37.9375 1.28125 C 26.625 1.28125 18.21875 -1.914062 12.71875 -8.3125 C 7.226562 -14.71875 4.484375 -24.21875 4.484375 -36.8125 L 4.484375 -137.5 L 31.21875 -137.5 L 31.21875 -37.9375 C 31.21875 -33.5625 31.644531 -30.144531 32.5 -27.6875 C 33.351562 -25.238281 35.164062 -24.015625 37.9375 -24.015625 C 40.707031 -24.015625 42.519531 -25.210938 43.375 -27.609375 C 44.226562 -30.015625 44.65625 -33.457031 44.65625 -37.9375 L 44.65625 -137.5 L 71.390625 -137.5 L 71.390625 -36.8125 C 71.390625 -24.21875 68.640625 -14.71875 63.140625 -8.3125 C 57.648438 -1.914062 49.25 1.28125 37.9375 1.28125 Z M 37.9375 1.28125 "/></g></g></g><g fill="#545454" fill-opacity="1"><g transform="translate(194.61046, 367.749688)"><g><path d="M 6.078125 -137.5 L 44.015625 -137.5 C 53.835938 -137.5 61.203125 -134.773438 66.109375 -129.328125 C 71.015625 -123.890625 73.523438 -115.835938 73.640625 -105.171875 L 73.953125 -40.8125 C 74.054688 -27.257812 71.707031 -17.066406 66.90625 -10.234375 C 62.101562 -3.410156 54.15625 0 43.0625 0 L 6.078125 0 Z M 38.578125 -24.328125 C 43.597656 -24.328125 46.109375 -26.785156 46.109375 -31.703125 L 46.109375 -102.609375 C 46.109375 -105.703125 45.863281 -108.019531 45.375 -109.5625 C 44.894531 -111.113281 44.015625 -112.15625 42.734375 -112.6875 C 41.453125 -113.226562 39.476562 -113.5 36.8125 -113.5 L 33.78125 -113.5 L 33.78125 -24.328125 Z M 38.578125 -24.328125 "/></g></g></g><g fill="#545454" fill-opacity="1"><g transform="translate(267.125828, 367.749688)"><g><path d="M 4.796875 0 L 4.796875 -137.5 L 31.375 -137.5 L 31.375 0 Z M 4.796875 0 "/></g></g></g><g fill="#545454" fill-opacity="1"><g transform="translate(297.060255, 367.749688)"><g><path d="M 38.90625 1.28125 C 27.800781 1.28125 19.367188 -2.101562 13.609375 -8.875 C 7.847656 -15.65625 4.96875 -25.179688 4.96875 -37.453125 L 4.96875 -102.9375 C 4.96875 -114.78125 7.847656 -123.710938 13.609375 -129.734375 C 19.367188 -135.765625 27.800781 -138.78125 38.90625 -138.78125 C 50 -138.78125 58.425781 -135.765625 64.1875 -129.734375 C 69.945312 -123.710938 72.828125 -114.78125 72.828125 -102.9375 L 72.828125 -37.453125 C 72.828125 -25.078125 69.945312 -15.523438 64.1875 -8.796875 C 58.425781 -2.078125 50 1.28125 38.90625 1.28125 Z M 38.90625 -24.015625 C 41.351562 -24.015625 43.003906 -25.082031 43.859375 -27.21875 C 44.710938 -29.351562 45.140625 -32.335938 45.140625 -36.171875 L 45.140625 -103.40625 C 45.140625 -106.394531 44.738281 -108.820312 43.9375 -110.6875 C 43.132812 -112.5625 41.507812 -113.5 39.0625 -113.5 C 34.46875 -113.5 32.171875 -110.03125 32.171875 -103.09375 L 32.171875 -36.015625 C 32.171875 -32.066406 32.648438 -29.078125 33.609375 -27.046875 C 34.578125 -25.023438 36.34375 -24.015625 38.90625 -24.015625 Z M 38.90625 -24.015625 "/></g></g></g><g fill="#1c2120" fill-opacity="1"><g transform="translate(0.777748, 200.551704)"><g><path d="M 6.046875 -19.765625 L 6.046875 -19.3125 C 5.722656 -19.3125 5.503906 -19.257812 5.390625 -19.15625 C 5.273438 -19.050781 5.21875 -18.914062 5.21875 -18.75 C 5.21875 -18.59375 5.265625 -18.40625 5.359375 -18.1875 C 5.460938 -17.976562 5.554688 -17.773438 5.640625 -17.578125 L 10.703125 -3.984375 L 10.78125 -3.984375 L 15.78125 -18.1875 C 15.875 -18.476562 15.921875 -18.703125 15.921875 -18.859375 C 15.921875 -19.160156 15.734375 -19.3125 15.359375 -19.3125 L 15.359375 -19.765625 L 20.578125 -19.765625 L 20.578125 -19.3125 C 20.128906 -19.3125 19.90625 -19.160156 19.90625 -18.859375 C 19.90625 -18.703125 19.9375 -18.550781 20 -18.40625 C 20.0625 -18.257812 20.144531 -18.046875 20.25 -17.765625 L 25.125 -4.4375 L 25.203125 -4.4375 L 30.046875 -17.546875 C 30.171875 -17.867188 30.265625 -18.117188 30.328125 -18.296875 C 30.390625 -18.472656 30.421875 -18.632812 30.421875 -18.78125 C 30.421875 -19.132812 30.144531 -19.3125 29.59375 -19.3125 L 29.59375 -19.765625 L 34.328125 -19.765625 L 34.328125 -19.3125 C 34.054688 -19.3125 33.832031 -19.234375 33.65625 -19.078125 C 33.476562 -18.929688 33.289062 -18.582031 33.09375 -18.03125 L 27.34375 -2.515625 C 27.113281 -1.890625 26.960938 -1.484375 26.890625 -1.296875 C 26.816406 -1.109375 26.78125 -0.9375 26.78125 -0.78125 C 26.78125 -0.65625 26.828125 -0.566406 26.921875 -0.515625 C 27.023438 -0.472656 27.226562 -0.453125 27.53125 -0.453125 L 27.53125 0 L 22.578125 0 L 22.578125 -0.453125 C 22.898438 -0.453125 23.101562 -0.484375 23.1875 -0.546875 C 23.28125 -0.609375 23.328125 -0.703125 23.328125 -0.828125 C 23.328125 -0.972656 23.285156 -1.144531 23.203125 -1.34375 C 23.128906 -1.550781 23.03125 -1.804688 22.90625 -2.109375 L 17.875 -15.78125 L 17.796875 -15.78125 L 12.765625 -1.734375 C 12.671875 -1.484375 12.609375 -1.296875 12.578125 -1.171875 C 12.554688 -1.046875 12.546875 -0.941406 12.546875 -0.859375 C 12.546875 -0.585938 12.796875 -0.453125 13.296875 -0.453125 L 13.296875 0 L 7.96875 0 L 7.96875 -0.453125 C 8.3125 -0.453125 8.519531 -0.488281 8.59375 -0.5625 C 8.675781 -0.632812 8.71875 -0.734375 8.71875 -0.859375 C 8.71875 -1.015625 8.6875 -1.195312 8.625 -1.40625 C 8.5625 -1.625 8.488281 -1.832031 8.40625 -2.03125 L 2.296875 -18.328125 C 2.140625 -18.734375 1.960938 -19 1.765625 -19.125 C 1.566406 -19.25 1.351562 -19.3125 1.125 -19.3125 L 1.125 -19.765625 Z M 6.046875 -19.765625 "/></g></g></g><g fill="#1c2120" fill-opacity="1"><g transform="translate(66.291312, 200.551704)"><g><path d="M 21.375 -16.234375 L 20.921875 -16.234375 C 20.921875 -16.929688 20.429688 -17.28125 19.453125 -17.28125 L 7.734375 -17.28125 L 7.734375 -11.34375 L 15.40625 -11.34375 C 15.832031 -11.34375 16.1875 -11.414062 16.46875 -11.5625 C 16.757812 -11.71875 16.90625 -11.992188 16.90625 -12.390625 L 17.359375 -12.390625 L 17.359375 -7.84375 L 16.90625 -7.84375 C 16.90625 -8.21875 16.789062 -8.476562 16.5625 -8.625 C 16.34375 -8.78125 15.96875 -8.859375 15.4375 -8.859375 L 7.734375 -8.859375 L 7.734375 -2.484375 L 20.328125 -2.484375 C 20.773438 -2.484375 21.132812 -2.566406 21.40625 -2.734375 C 21.6875 -2.910156 21.828125 -3.25 21.828125 -3.75 L 22.28125 -3.75 L 22.28125 0.828125 L 21.828125 0.828125 C 21.828125 0.503906 21.71875 0.285156 21.5 0.171875 C 21.289062 0.0546875 20.972656 0 20.546875 0 L 3.6875 0 L 3.6875 -0.453125 C 4.03125 -0.453125 4.265625 -0.53125 4.390625 -0.6875 C 4.515625 -0.851562 4.578125 -1.078125 4.578125 -1.359375 L 4.578125 -18.40625 C 4.578125 -18.65625 4.519531 -18.867188 4.40625 -19.046875 C 4.300781 -19.222656 4.0625 -19.3125 3.6875 -19.3125 L 3.6875 -19.765625 L 19.1875 -19.765625 C 19.863281 -19.765625 20.320312 -19.800781 20.5625 -19.875 C 20.800781 -19.945312 20.921875 -20.160156 20.921875 -20.515625 L 21.375 -20.515625 Z M 21.375 -16.234375 "/></g></g></g><g fill="#1c2120" fill-opacity="1"><g transform="translate(121.402054, 200.551704)"><g><path d="M 16.9375 -2.703125 C 18.144531 -2.703125 19.066406 -2.976562 19.703125 -3.53125 C 20.335938 -4.082031 20.65625 -4.882812 20.65625 -5.9375 C 20.65625 -6.988281 20.34375 -7.789062 19.71875 -8.34375 C 19.09375 -8.894531 18.203125 -9.171875 17.046875 -9.171875 L 7.59375 -9.171875 L 7.59375 -2.703125 Z M 16.15625 -11.875 C 17.382812 -11.875 18.328125 -12.046875 18.984375 -12.390625 C 19.648438 -12.742188 19.984375 -13.4375 19.984375 -14.46875 C 19.984375 -15.4375 19.671875 -16.109375 19.046875 -16.484375 C 18.421875 -16.859375 17.46875 -17.046875 16.1875 -17.046875 L 7.59375 -17.046875 L 7.59375 -11.875 Z M 16.53125 -19.765625 C 18.550781 -19.765625 20.144531 -19.335938 21.3125 -18.484375 C 22.476562 -17.628906 23.0625 -16.351562 23.0625 -14.65625 C 23.0625 -13.519531 22.816406 -12.617188 22.328125 -11.953125 C 21.835938 -11.296875 21.144531 -10.851562 20.25 -10.625 L 20.25 -10.5625 C 21.300781 -10.300781 22.117188 -9.75 22.703125 -8.90625 C 23.296875 -8.070312 23.59375 -7.019531 23.59375 -5.75 C 23.59375 -3.769531 22.972656 -2.316406 21.734375 -1.390625 C 20.492188 -0.460938 18.644531 0 16.1875 0 L 3.53125 0 L 3.53125 -0.453125 C 3.882812 -0.453125 4.125 -0.53125 4.25 -0.6875 C 4.375 -0.851562 4.4375 -1.078125 4.4375 -1.359375 L 4.4375 -18.40625 C 4.4375 -18.675781 4.375 -18.894531 4.25 -19.0625 C 4.125 -19.226562 3.882812 -19.3125 3.53125 -19.3125 L 3.53125 -19.765625 Z M 16.53125 -19.765625 "/></g></g></g><g fill="#1c2120" fill-opacity="1"><g transform="translate(178.578332, 200.551704)"><g/></g></g><g fill="#1c2120" fill-opacity="1"><g transform="translate(220.131597, 200.551704)"><g><path d="M 15.21875 -2.484375 C 17.269531 -2.484375 18.875 -3.085938 20.03125 -4.296875 C 21.195312 -5.515625 21.78125 -7.375 21.78125 -9.875 C 21.78125 -12.300781 21.140625 -14.140625 19.859375 -15.390625 C 18.585938 -16.648438 16.789062 -17.28125 14.46875 -17.28125 L 7.21875 -17.28125 L 7.21875 -2.484375 Z M 14.875 -19.765625 C 16.25 -19.765625 17.539062 -19.535156 18.75 -19.078125 C 19.96875 -18.628906 21.023438 -17.984375 21.921875 -17.140625 C 22.828125 -16.304688 23.539062 -15.273438 24.0625 -14.046875 C 24.59375 -12.816406 24.859375 -11.425781 24.859375 -9.875 C 24.859375 -8.375 24.644531 -7.015625 24.21875 -5.796875 C 23.800781 -4.585938 23.191406 -3.550781 22.390625 -2.6875 C 21.585938 -1.820312 20.609375 -1.15625 19.453125 -0.6875 C 18.304688 -0.226562 17.019531 0 15.59375 0 L 3.15625 0 L 3.15625 -0.453125 C 3.507812 -0.453125 3.75 -0.53125 3.875 -0.6875 C 4 -0.851562 4.0625 -1.0625 4.0625 -1.3125 L 4.0625 -18.4375 C 4.0625 -18.644531 4.003906 -18.84375 3.890625 -19.03125 C 3.773438 -19.21875 3.53125 -19.3125 3.15625 -19.3125 L 3.15625 -19.765625 Z M 14.875 -19.765625 "/></g></g></g><g fill="#1c2120" fill-opacity="1"><g transform="translate(277.307862, 200.551704)"><g><path d="M 21.375 -16.234375 L 20.921875 -16.234375 C 20.921875 -16.929688 20.429688 -17.28125 19.453125 -17.28125 L 7.734375 -17.28125 L 7.734375 -11.34375 L 15.40625 -11.34375 C 15.832031 -11.34375 16.1875 -11.414062 16.46875 -11.5625 C 16.757812 -11.71875 16.90625 -11.992188 16.90625 -12.390625 L 17.359375 -12.390625 L 17.359375 -7.84375 L 16.90625 -7.84375 C 16.90625 -8.21875 16.789062 -8.476562 16.5625 -8.625 C 16.34375 -8.78125 15.96875 -8.859375 15.4375 -8.859375 L 7.734375 -8.859375 L 7.734375 -2.484375 L 20.328125 -2.484375 C 20.773438 -2.484375 21.132812 -2.566406 21.40625 -2.734375 C 21.6875 -2.910156 21.828125 -3.25 21.828125 -3.75 L 22.28125 -3.75 L 22.28125 0.828125 L 21.828125 0.828125 C 21.828125 0.503906 21.71875 0.285156 21.5 0.171875 C 21.289062 0.0546875 20.972656 0 20.546875 0 L 3.6875 0 L 3.6875 -0.453125 C 4.03125 -0.453125 4.265625 -0.53125 4.390625 -0.6875 C 4.515625 -0.851562 4.578125 -1.078125 4.578125 -1.359375 L 4.578125 -18.40625 C 4.578125 -18.65625 4.519531 -18.867188 4.40625 -19.046875 C 4.300781 -19.222656 4.0625 -19.3125 3.6875 -19.3125 L 3.6875 -19.765625 L 19.1875 -19.765625 C 19.863281 -19.765625 20.320312 -19.800781 20.5625 -19.875 C 20.800781 -19.945312 20.921875 -20.160156 20.921875 -20.515625 L 21.375 -20.515625 Z M 21.375 -16.234375 "/></g></g></g><g fill="#1c2120" fill-opacity="1"><g transform="translate(332.418604, 200.551704)"><g><path d="M 5.890625 -19.765625 L 5.890625 -19.3125 C 5.242188 -19.3125 4.921875 -19.125 4.921875 -18.75 C 4.921875 -18.625 4.945312 -18.503906 5 -18.390625 C 5.050781 -18.273438 5.140625 -18.101562 5.265625 -17.875 L 11.6875 -3.609375 L 17.84375 -18.03125 C 17.988281 -18.351562 18.0625 -18.578125 18.0625 -18.703125 C 18.0625 -18.859375 18 -19 17.875 -19.125 C 17.75 -19.25 17.488281 -19.3125 17.09375 -19.3125 L 17.09375 -19.765625 L 22.421875 -19.765625 L 22.421875 -19.3125 C 22.117188 -19.3125 21.847656 -19.226562 21.609375 -19.0625 C 21.378906 -18.894531 21.148438 -18.550781 20.921875 -18.03125 L 14.09375 -2.25 C 13.914062 -1.851562 13.78125 -1.550781 13.6875 -1.34375 C 13.601562 -1.144531 13.5625 -1 13.5625 -0.90625 C 13.5625 -0.601562 13.847656 -0.453125 14.421875 -0.453125 L 14.421875 0 L 8.671875 0 L 8.671875 -0.453125 C 9.273438 -0.453125 9.578125 -0.613281 9.578125 -0.9375 C 9.578125 -1.0625 9.5625 -1.171875 9.53125 -1.265625 C 9.507812 -1.367188 9.453125 -1.523438 9.359375 -1.734375 L 2.03125 -17.953125 C 1.78125 -18.503906 1.550781 -18.867188 1.34375 -19.046875 C 1.144531 -19.222656 0.859375 -19.3125 0.484375 -19.3125 L 0.484375 -19.765625 Z M 5.890625 -19.765625 "/></g></g></g></svg>