<svg xmlns="http://www.w3.org/2000/svg" xmlns:xlink="http://www.w3.org/1999/xlink" width="300" zoomAndPan="magnify" viewBox="0 0 224.87999 74.999997" height="100" preserveAspectRatio="xMidYMid meet" version="1.0"><defs><g/><clipPath id="ad979d27c8"><path d="M 68 13.496094 L 224.761719 13.496094 L 224.761719 61.503906 L 68 61.503906 Z M 68 13.496094 " clip-rule="nonzero"/></clipPath><clipPath id="a9f013b811"><path d="M 98.273438 13.496094 L 223.007812 13.496094 C 223.667969 13.496094 224.277344 13.851562 224.605469 14.425781 C 224.929688 14.996094 224.925781 15.699219 224.589844 16.269531 L 199.441406 58.730469 C 198.425781 60.449219 196.578125 61.503906 194.582031 61.503906 L 69.847656 61.503906 C 69.1875 61.503906 68.578125 61.148438 68.253906 60.574219 C 67.925781 60.003906 67.929688 59.300781 68.265625 58.730469 L 93.414062 16.269531 C 94.429688 14.550781 96.277344 13.496094 98.273438 13.496094 Z M 98.273438 13.496094 " clip-rule="nonzero"/></clipPath></defs><g clip-path="url(#ad979d27c8)"><g clip-path="url(#a9f013b811)"><path fill="#545454" d="M 66.625 13.496094 L 226.207031 13.496094 L 226.207031 61.503906 L 66.625 61.503906 Z M 66.625 13.496094 " fill-opacity="1" fill-rule="nonzero"/></g></g><g fill="#1c2120" fill-opacity="1"><g transform="translate(-2.081872, 60.350502)"><g><path d="M 45.359375 0 L 36.875 0 L 36.8125 -24.59375 L 27.734375 -3.78125 L 21.46875 -3.78125 L 12.375 -24.59375 L 12.375 0 L 3.78125 0 L 3.78125 -37.890625 L 14.328125 -37.890625 L 24.59375 -15.359375 L 34.875 -37.890625 L 45.359375 -37.890625 Z M 45.359375 0 "/></g></g></g><g fill="#1c2120" fill-opacity="1"><g transform="translate(44.023219, 60.350502)"><g><path d="M 23.296875 -12.21875 L 23.296875 0 L 13.734375 0 L 13.734375 -11.953125 L -0.265625 -37.84375 L 9.359375 -37.84375 L 18.484375 -21.359375 L 27.40625 -37.84375 L 37.03125 -37.84375 Z M 23.296875 -12.21875 "/></g></g></g><g fill="#ffffff" fill-opacity="1"><g transform="translate(77.988852, 53.422864)"><g><path d="M 13.703125 -28.625 C 17.929688 -28.625 21.648438 -27.570312 24.859375 -25.46875 L 22.15625 -19.84375 C 20.664062 -20.707031 19.070312 -21.414062 17.375 -21.96875 C 15.675781 -22.519531 14.25 -22.796875 13.09375 -22.796875 C 11.019531 -22.796875 9.984375 -22.109375 9.984375 -20.734375 C 9.984375 -19.847656 10.492188 -19.132812 11.515625 -18.59375 C 12.546875 -18.050781 13.796875 -17.582031 15.265625 -17.1875 C 16.734375 -16.800781 18.203125 -16.332031 19.671875 -15.78125 C 21.140625 -15.226562 22.382812 -14.332031 23.40625 -13.09375 C 24.425781 -11.851562 24.9375 -10.289062 24.9375 -8.40625 C 24.9375 -5.6875 23.867188 -3.5625 21.734375 -2.03125 C 19.609375 -0.507812 16.90625 0.25 13.625 0.25 C 11.28125 0.25 8.960938 -0.15625 6.671875 -0.96875 C 4.378906 -1.78125 2.382812 -2.882812 0.6875 -4.28125 L 3.46875 -9.828125 C 4.90625 -8.585938 6.59375 -7.566406 8.53125 -6.765625 C 10.46875 -5.972656 12.191406 -5.578125 13.703125 -5.578125 C 14.859375 -5.578125 15.757812 -5.785156 16.40625 -6.203125 C 17.050781 -6.617188 17.375 -7.234375 17.375 -8.046875 C 17.375 -8.828125 17.003906 -9.476562 16.265625 -10 C 15.523438 -10.53125 14.601562 -10.921875 13.5 -11.171875 C 12.394531 -11.429688 11.195312 -11.773438 9.90625 -12.203125 C 8.613281 -12.640625 7.414062 -13.113281 6.3125 -13.625 C 5.207031 -14.132812 4.28125 -14.945312 3.53125 -16.0625 C 2.789062 -17.1875 2.421875 -18.53125 2.421875 -20.09375 C 2.421875 -22.675781 3.453125 -24.742188 5.515625 -26.296875 C 7.578125 -27.847656 10.304688 -28.625 13.703125 -28.625 Z M 13.703125 -28.625 "/></g></g></g><g fill="#ffffff" fill-opacity="1"><g transform="translate(101.719169, 53.422864)"><g><path d="M 15.484375 -6.015625 L 16.859375 -1.171875 C 15.160156 -0.171875 13.21875 0.328125 11.03125 0.328125 C 8.875 0.328125 7.128906 -0.269531 5.796875 -1.46875 C 4.460938 -2.675781 3.796875 -4.382812 3.796875 -6.59375 L 3.796875 -16.203125 L 0.765625 -16.203125 L 0.765625 -20.78125 L 3.796875 -20.78125 L 3.796875 -26.84375 L 10.75 -26.84375 L 10.75 -20.8125 L 16.453125 -20.8125 L 16.453125 -16.203125 L 10.75 -16.203125 L 10.75 -7.6875 C 10.75 -6.84375 10.914062 -6.222656 11.25 -5.828125 C 11.59375 -5.441406 12.097656 -5.265625 12.765625 -5.296875 C 13.421875 -5.296875 14.328125 -5.535156 15.484375 -6.015625 Z M 15.484375 -6.015625 "/></g></g></g><g fill="#ffffff" fill-opacity="1"><g transform="translate(117.000275, 53.422864)"><g><path d="M 24.015625 -21.78125 L 24.015625 0 L 17.015625 0 L 17.015625 -3.59375 C 15.535156 -1.007812 13.175781 0.28125 9.9375 0.28125 C 7.570312 0.28125 5.679688 -0.472656 4.265625 -1.984375 C 2.847656 -3.492188 2.140625 -5.515625 2.140625 -8.046875 L 2.140625 -21.78125 L 9.140625 -21.78125 L 9.140625 -10.03125 C 9.140625 -8.726562 9.46875 -7.707031 10.125 -6.96875 C 10.78125 -6.226562 11.660156 -5.859375 12.765625 -5.859375 C 14.085938 -5.890625 15.125 -6.378906 15.875 -7.328125 C 16.632812 -8.285156 17.015625 -9.519531 17.015625 -11.03125 L 17.015625 -21.78125 Z M 24.015625 -21.78125 "/></g></g></g><g fill="#ffffff" fill-opacity="1"><g transform="translate(141.4987, 53.422864)"><g><path d="M 24.734375 -30 L 24.734375 0 L 17.75 0 L 17.75 -2.875 C 16.15625 -0.769531 13.972656 0.28125 11.203125 0.28125 C 8.128906 0.28125 5.660156 -0.753906 3.796875 -2.828125 C 1.941406 -4.898438 1.015625 -7.625 1.015625 -11 C 1.015625 -14.332031 1.929688 -17.007812 3.765625 -19.03125 C 5.597656 -21.0625 8.019531 -22.078125 11.03125 -22.078125 C 13.914062 -22.078125 16.15625 -21.023438 17.75 -18.921875 L 17.75 -30 Z M 9.375 -6.703125 C 10.269531 -5.660156 11.441406 -5.140625 12.890625 -5.140625 C 14.347656 -5.140625 15.519531 -5.660156 16.40625 -6.703125 C 17.300781 -7.753906 17.75 -9.128906 17.75 -10.828125 C 17.75 -12.503906 17.300781 -13.863281 16.40625 -14.90625 C 15.519531 -15.957031 14.347656 -16.484375 12.890625 -16.484375 C 11.441406 -16.484375 10.269531 -15.960938 9.375 -14.921875 C 8.488281 -13.890625 8.03125 -12.523438 8 -10.828125 C 8.03125 -9.128906 8.488281 -7.753906 9.375 -6.703125 Z M 9.375 -6.703125 "/></g></g></g><g fill="#ffffff" fill-opacity="1"><g transform="translate(166.926947, 53.422864)"><g><path d="M 3.65625 -30.703125 C 4.34375 -31.390625 5.222656 -31.734375 6.296875 -31.734375 C 7.378906 -31.734375 8.265625 -31.390625 8.953125 -30.703125 C 9.640625 -30.015625 9.984375 -29.128906 9.984375 -28.046875 C 9.984375 -26.972656 9.640625 -26.082031 8.953125 -25.375 C 8.265625 -24.675781 7.378906 -24.328125 6.296875 -24.328125 C 5.222656 -24.328125 4.34375 -24.675781 3.65625 -25.375 C 2.96875 -26.082031 2.625 -26.972656 2.625 -28.046875 C 2.625 -29.128906 2.96875 -30.015625 3.65625 -30.703125 Z M 9.734375 0 L 2.796875 0 L 2.796875 -21.78125 L 9.734375 -21.78125 Z M 9.734375 0 "/></g></g></g><g fill="#ffffff" fill-opacity="1"><g transform="translate(177.195136, 53.422864)"><g><path d="M 12.890625 -22.03125 C 16.453125 -22.03125 19.320312 -21.007812 21.5 -18.96875 C 23.6875 -16.9375 24.78125 -14.25 24.78125 -10.90625 C 24.78125 -7.570312 23.6875 -4.878906 21.5 -2.828125 C 19.320312 -0.773438 16.453125 0.25 12.890625 0.25 C 9.304688 0.25 6.421875 -0.773438 4.234375 -2.828125 C 2.054688 -4.878906 0.96875 -7.570312 0.96875 -10.90625 C 0.96875 -14.25 2.054688 -16.9375 4.234375 -18.96875 C 6.421875 -21.007812 9.304688 -22.03125 12.890625 -22.03125 Z M 12.890625 -16.484375 C 11.441406 -16.484375 10.265625 -15.957031 9.359375 -14.90625 C 8.453125 -13.863281 8 -12.503906 8 -10.828125 C 8 -9.128906 8.453125 -7.757812 9.359375 -6.71875 C 10.265625 -5.6875 11.441406 -5.171875 12.890625 -5.171875 C 14.316406 -5.171875 15.484375 -5.6875 16.390625 -6.71875 C 17.296875 -7.757812 17.75 -9.128906 17.75 -10.828125 C 17.75 -12.503906 17.296875 -13.863281 16.390625 -14.90625 C 15.484375 -15.957031 14.316406 -16.484375 12.890625 -16.484375 Z M 12.890625 -16.484375 "/></g></g></g></svg>