<svg width="251" height="218" viewBox="0 0 251 218" fill="none" xmlns="http://www.w3.org/2000/svg">
<path d="M30.6222 62.2937C32.2453 62.9776 33.9046 63.5721 35.5925 64.075C38.5263 65.2066 41.6714 65.6848 44.8089 65.4758C47.9464 65.2669 51.0006 64.3759 53.7584 62.8653C54.0223 62.7333 54.1102 62.3155 54.2422 62.0296C54.922 61.5709 55.562 61.056 56.1555 60.4902C56.689 59.9684 57.168 59.3935 57.5851 58.7747C58.4805 57.4518 59.0804 55.9516 59.3444 54.3762C59.6724 52.88 59.6297 51.3263 59.2195 49.8504C58.8094 48.3746 58.0443 47.0215 56.9913 45.9091C55.7539 44.9695 54.3156 44.3295 52.7893 44.0395C51.2629 43.7495 49.69 43.8173 48.1942 44.2376C47.9669 44.338 47.7316 44.4189 47.4906 44.4795C47.1637 44.5425 46.8277 44.5425 46.5008 44.4795C44.9734 44.267 43.5186 43.694 42.2563 42.8081C41.2853 42.3301 40.4371 41.6354 39.7774 40.7774C39.1176 39.9194 38.6638 38.921 38.4514 37.8597C38.3832 36.8457 38.6208 35.8345 39.1333 34.9568C39.7554 33.9698 40.6282 33.1653 41.6625 32.6255C44.1802 31.3445 46.9283 30.5797 49.7457 30.3758C52.5631 30.1718 55.393 30.5331 58.0689 31.4381C62.0649 32.6959 65.6447 35.014 68.4273 38.1457L69.703 39.7513L70.8687 41.4666C72.9299 44.8535 74.025 48.7399 74.0355 52.7047C74.0077 58.5208 72.0593 64.1648 68.4933 68.7594C67.2841 70.2617 65.9205 71.6327 64.4248 72.85C61.543 75.1799 58.2855 77.0022 54.792 78.2383C48.7262 80.3628 42.1997 80.811 35.9005 79.5358C29.7372 78.2619 23.9319 75.6408 18.9002 71.8605C14.1293 68.4161 10.042 64.1127 6.84808 59.1707C3.53519 54.0298 1.53424 48.1546 1.02026 42.0604C0.713313 36.7988 1.60034 31.5358 3.61524 26.6656C5.53308 21.9943 8.18361 17.6587 11.4667 13.822C13.346 12.1709 14.6418 9.95715 15.1613 7.51014C16.9427 7.37818 17.7125 6.03646 18.7461 4.84886C19.1487 4.13961 19.7879 3.59468 20.5518 3.30921C21.3158 3.02375 22.1558 3.01602 22.9248 3.28747C23.8126 2.996 24.6677 2.61268 25.476 2.14381C27.1254 0.780271 28.5548 0.560313 29.4565 1.28607C30.3582 2.01182 30.93 3.83741 31.4139 6.71844C31.6558 7.97202 32.4914 9.40145 32.1395 10.4791C31.9416 12.6783 31.282 13.5361 30.3363 14.0859C29.3216 14.518 28.3372 15.0175 27.3893 15.5812C23.1981 18.9454 19.9415 23.3303 17.9324 28.315C15.9202 33.1369 15.3547 38.4403 16.305 43.578C17.4846 49.9526 21.0269 55.647 26.2237 59.5226C27.6532 60.5783 29.4786 60.9081 30.6222 62.1837V62.2937Z" fill="black"/>
<path d="M30.2955 172.148C31.4387 173.002 32.6362 173.78 33.8803 174.479C34.9342 175.193 36.0625 175.79 37.2452 176.261C38.3716 176.688 39.5458 176.976 40.742 177.118C43.2856 177.429 45.8667 177.151 48.2855 176.305C48.5275 176.305 48.6594 175.843 48.8354 175.623C51.4686 174.708 53.7006 172.904 55.1472 170.521C55.7793 169.335 56.1186 168.015 56.1368 166.672C56.157 165.176 55.9191 163.688 55.4331 162.273C54.4978 159.291 52.6035 156.701 50.0448 154.906C49.4931 154.669 49.0203 154.28 48.6813 153.784C47.9901 152.425 47.6644 150.909 47.7357 149.386C47.5266 147.267 48.1407 145.148 49.4509 143.47C50.0205 142.818 50.7973 142.383 51.6502 142.238C52.6119 142.037 53.6126 142.145 54.5093 142.546C58.9073 144.402 62.6034 147.605 65.0659 151.695C67.4198 155.458 69.0738 159.615 69.9482 163.967C70.6731 167.379 70.4835 170.922 69.3984 174.237C68.3127 177.524 66.5097 180.529 64.1201 183.034C59.519 187.685 53.5428 190.731 47.0758 191.721C41.2886 192.742 35.3279 191.974 29.9876 189.522C24.8343 187.127 20.3148 183.557 16.792 179.098C13.5169 175.067 10.9513 170.508 9.20468 165.616C7.43959 160.62 6.80128 155.295 7.33537 150.023C7.87876 145.177 9.61559 140.54 12.3905 136.529C15.1655 132.518 18.8919 129.259 23.236 127.041C25.583 126.254 27.6833 124.867 29.3279 123.017C30.0723 123.256 30.8572 123.342 31.6357 123.27C32.4142 123.198 33.1702 122.97 33.8583 122.599C34.6181 122.247 35.4785 122.178 36.2847 122.404C37.0908 122.629 37.79 123.135 38.2568 123.83C39.1792 124.148 40.1192 124.412 41.0719 124.622C43.2712 124.776 44.5467 125.7 44.6347 126.821C44.7227 127.943 43.6671 129.592 41.9297 131.923C41.2039 132.957 40.6321 134.519 39.7304 135.069C38.3009 136.542 37.6631 136.894 36.9813 136.784C36.2996 136.674 35.6178 136.212 34.7821 136.3C32.9064 136.502 31.0935 137.094 29.4598 138.037C27.8272 138.998 26.4178 140.295 25.3251 141.842C22.9646 145.418 21.7594 149.633 21.8724 153.916C21.6871 159.488 23.4875 164.944 26.9526 169.311C27.9862 170.411 29.3718 171.07 30.0536 172.324L30.2955 172.148Z" fill="black"/>
<path d="M163.502 195.764C163.964 195.127 164.338 194.423 164.778 193.785C165.132 193.106 165.521 192.445 165.943 191.806C167.495 189.595 168.528 187.062 168.966 184.397C169.404 181.732 169.235 179.002 168.472 176.411C168.472 176.191 168.01 176.059 167.791 175.905C166.72 173.218 164.634 171.061 161.984 169.901C158.439 168.379 154.552 167.832 150.724 168.318L149.295 168.516C148.833 168.516 148.393 168.736 147.931 168.824C147.037 169.045 146.156 169.317 145.292 169.637C143.696 170.3 142.213 171.205 140.894 172.32C140.674 172.496 140.432 172.716 140.146 172.914C139.875 173.197 139.533 173.402 139.156 173.508C137.588 173.762 135.98 173.516 134.56 172.804C132.544 172.163 130.841 170.79 129.787 168.956C129.436 168.146 129.3 167.26 129.392 166.382C129.587 165.466 130.019 164.617 130.645 163.919C133.839 160.391 137.927 157.792 142.477 156.398C146.679 155.127 151.023 154.388 155.409 154.198C162.089 153.76 168.693 155.83 173.927 160.004C176.7 162.199 179.003 164.929 180.7 168.032C181.472 169.577 182.14 171.171 182.702 172.804C183.203 174.452 183.578 176.136 183.823 177.84C184.576 183.787 183.631 189.826 181.096 195.259C178.698 200.565 175.126 205.258 170.65 208.982C166.317 212.758 161.108 215.389 155.497 216.635C149.746 217.827 143.773 217.33 138.298 215.206C133.813 213.392 129.781 210.614 126.488 207.069C123.347 203.673 120.743 199.816 118.769 195.632C118.263 194.687 117.889 193.631 117.296 192.685C116.637 191.664 115.738 190.818 114.678 190.222C115.36 188.595 114.392 187.517 113.777 186.198C113.161 184.878 112.545 183.515 114.129 182.041C114.25 181.18 114.25 180.307 114.129 179.446C113.667 177.532 113.953 176.235 115.008 175.751C116.919 175.318 118.915 175.456 120.748 176.147C122.002 176.433 123.651 176.279 124.509 176.961C126.444 177.906 126.906 178.742 127.082 179.71C127.148 180.191 127.148 180.68 127.082 181.161C127.077 181.657 127.129 182.151 127.236 182.635C128.532 187.246 130.941 191.467 134.252 194.929C137.432 198.316 141.502 200.74 145.996 201.922C148.52 202.68 151.195 202.791 153.773 202.246C156.352 201.7 158.752 200.515 160.753 198.799C161.281 198.272 161.743 197.656 162.204 197.106C162.581 196.457 163.129 195.925 163.788 195.567L163.502 195.764Z" fill="black"/>
<path d="M142.169 82.987C142.169 81.7775 141.818 80.6119 141.73 79.4463C141.679 77.4253 141.212 75.4365 140.357 73.6048C139.501 71.773 138.277 70.1379 136.759 68.8019C136.605 68.8019 136.297 68.8019 136.078 68.8019C134.427 67.5416 132.361 66.9524 130.293 67.1525C127.485 67.4759 124.797 68.4799 122.464 70.0774C120.249 71.4906 118.419 73.4332 117.142 75.7297C117.04 75.948 116.915 76.1542 116.768 76.3452C116.639 76.624 116.433 76.8605 116.174 77.0271C114.815 77.7337 113.308 78.1104 111.776 78.1268C109.713 78.4439 107.603 78.073 105.772 77.0712C105.11 76.6365 104.59 76.017 104.276 75.2896C104.032 74.5243 104.032 73.702 104.276 72.9366C105.366 69.0777 107.452 65.5736 110.324 62.776C112.969 60.2736 115.874 58.0618 118.989 56.1782C123.669 53.1537 129.297 51.956 134.802 52.8133C137.73 53.2289 140.551 54.1994 143.115 55.6724C146.485 57.6705 149.391 60.3629 151.639 63.5709C153.888 66.7789 155.428 70.4289 156.157 74.2781C157.124 78.9792 157.124 83.8281 156.157 88.5292C155.298 93.1565 153.453 97.5445 150.747 101.395C147.971 105.288 144.246 108.407 139.926 110.456C136.331 112.088 132.438 112.963 128.49 113.029C124.72 113.093 120.958 112.671 117.296 111.776C116.443 111.55 115.576 111.381 114.701 111.269C113.661 111.232 112.635 111.508 111.754 112.061C111.094 110.654 109.884 110.83 108.719 110.698C107.553 110.566 106.366 110.39 106.212 108.498C105.64 108.103 105.178 107.487 104.496 107.333C102.957 106.893 102.297 106.123 102.473 105.134C103.191 103.318 104.338 101.703 105.816 100.427C106.651 99.4816 107.421 98.03 108.345 97.6122C110.016 96.4026 110.852 96.3585 111.578 96.6664C112.303 96.9743 112.787 97.7662 113.535 97.9861C117.139 99.2506 120.962 99.7741 124.773 99.5255C128.43 99.3012 131.977 98.1918 135.11 96.2927C136.926 95.3094 138.497 93.9282 139.704 92.2525C140.911 90.5769 141.724 88.65 142.082 86.6159C142.082 86.0221 142.082 85.4282 142.082 84.8564C141.961 84.2882 142.047 83.6958 142.324 83.1852L142.169 82.987Z" fill="black"/>
<path d="M235.068 112.899C234.739 112.041 234.167 111.293 233.881 110.479C232.895 107.502 230.789 105.026 228.009 103.574C227.877 103.574 227.635 103.728 227.481 103.816C225.896 103.098 224.122 102.912 222.423 103.288C220.196 103.822 218.102 104.802 216.265 106.169C214.37 107.492 212.693 109.102 211.295 110.941C211.041 111.387 210.646 111.735 210.173 111.931C208.734 112.296 207.233 112.341 205.774 112.063C203.723 111.924 201.743 111.249 200.034 110.106C199.463 109.729 199.039 109.166 198.835 108.513C198.63 107.86 198.658 107.156 198.913 106.521C200.237 103.571 202.119 100.905 204.455 98.6694C206.654 96.4701 209.029 94.7109 211.426 92.7975C215.11 89.9483 219.635 88.4014 224.292 88.399C229.192 88.3656 233.989 89.8061 238.059 92.5336C241.59 94.8992 244.472 98.1129 246.439 101.88C248.402 105.545 249.6 109.57 249.958 113.712C250.412 117.851 249.923 122.039 248.528 125.962C247.04 130.075 244.36 133.651 240.831 136.233C237.913 138.303 234.542 139.645 231 140.147C227.631 140.607 224.212 140.548 220.861 139.972C220.07 139.972 219.3 139.686 218.464 139.664C217.489 139.706 216.548 140.035 215.759 140.609C215.143 139.224 214.022 139.488 212.9 139.334C211.778 139.18 210.701 139.026 210.701 137.134C210.173 136.717 209.777 136.101 209.139 135.947C207.71 135.441 207.094 134.627 207.468 133.572C208.426 131.864 209.721 130.368 211.273 129.173C212.09 128.204 213.004 127.32 214 126.534C215.627 125.346 216.199 125.215 216.727 125.434C217.255 125.654 217.452 126.314 217.98 126.468C220.586 127.317 223.366 127.476 226.052 126.93C228.685 126.418 231.119 125.168 233.067 123.323C234.143 122.329 234.991 121.113 235.553 119.76C236.086 118.358 236.223 116.836 235.948 115.362C235.772 114.504 234.937 113.778 235.245 112.877L235.068 112.899Z" fill="black"/>
</svg>
