<?xml version="1.0" standalone="no"?>
<!DOCTYPE svg PUBLIC "-//W3C//DTD SVG 20010904//EN"
 "http://www.w3.org/TR/2001/REC-SVG-20010904/DTD/svg10.dtd">
<svg version="1.0" xmlns="http://www.w3.org/2000/svg"
 width="50.000000pt" height="50.000000pt" viewBox="0 0 50.000000 50.000000"
 preserveAspectRatio="xMidYMid meet">

<g transform="translate(0.000000,50.000000) scale(0.100000,-0.100000)"
fill="#000000" stroke="none">
<path d="M24 437 c-2 -7 -3 -80 -2 -162 l3 -150 83 -3 c62 -2 82 -6 82 -17 0
-8 -12 -15 -27 -17 -20 -2 -29 -9 -31 -25 -3 -23 -2 -23 118 -23 120 0 121 0
118 23 -2 16 -11 23 -30 25 -16 2 -28 9 -28 17 0 11 20 15 83 17 l82 3 0 160
0 160 -223 3 c-176 2 -224 0 -228 -11z m436 -122 l0 -115 -210 0 -210 0 0 115
0 115 210 0 210 0 0 -115z m0 -155 c0 -19 -7 -20 -210 -20 -203 0 -210 1 -210
20 0 19 7 20 210 20 203 0 210 -1 210 -20z m-170 -55 c0 -11 -11 -15 -40 -15
-29 0 -40 4 -40 15 0 11 11 15 40 15 29 0 40 -4 40 -15z m13 -42 c-29 -2 -77
-2 -105 0 -29 2 -6 3 52 3 58 0 81 -1 53 -3z"/>
<path d="M410 160 c0 -5 5 -10 10 -10 6 0 10 5 10 10 0 6 -4 10 -10 10 -5 0
-10 -4 -10 -10z"/>
</g>
</svg>
